<svg xmlns="http://www.w3.org/2000/svg" viewBox="0 0 800 800">
  <!-- Orangutan with fire and plant elements -->
  <g>
    <!-- Green plant/pitcher plant on left -->
    <path d="M316.5,396.8c-10.9-3.8-22.3-6.2-33.9-7.2c-11.6-1-23.3-0.6-34.8,1.2c-5.8,0.9-11.5,2.1-17.1,3.7
      c-5.6,1.6-11.1,3.5-16.4,5.8c-10.7,4.5-20.8,10.4-30,17.5c-4.6,3.5-9,7.3-13.1,11.3c-4.1,4-8,8.3-11.6,12.7
      c-7.2,8.9-13.3,18.6-18.1,28.9c-2.4,5.2-4.5,10.5-6.2,16c-1.7,5.5-3.1,11-4,16.7c-1.9,11.3-2.1,22.9-0.6,34.3
      c0.7,5.7,1.9,11.4,3.4,16.9c1.5,5.5,3.4,11,5.7,16.2c4.5,10.5,10.4,20.4,17.5,29.3c3.6,4.5,7.4,8.7,11.5,12.7
      c4.1,4,8.4,7.7,13,11.1c9.1,6.9,19.1,12.6,29.7,16.9c5.3,2.1,10.7,3.9,16.3,5.3c5.5,1.4,11.2,2.5,16.9,3.2
      c11.4,1.4,23,1.2,34.3-0.7c5.7-0.9,11.3-2.2,16.8-3.8c5.5-1.6,10.9-3.6,16.1-5.9c10.4-4.6,20.3-10.6,29.1-17.8
      c4.4-3.6,8.6-7.5,12.5-11.6c3.9-4.1,7.6-8.5,10.9-13.1c6.7-9.2,12.3-19.3,16.4-30c2-5.3,3.7-10.8,5-16.4c1.3-5.6,2.3-11.2,2.9-17
      c1.2-11.5,0.8-23.1-1.2-34.5c-1-5.7-2.3-11.3-4-16.8c-1.7-5.5-3.7-10.8-6-16c-4.7-10.4-10.7-20.1-17.9-28.8
      c-3.6-4.3-7.5-8.5-11.6-12.3c-4.1-3.9-8.5-7.5-13-10.9c-9.1-6.7-19-12.3-29.5-16.6c-5.3-2.1-10.7-3.9-16.2-5.4
      C327.8,398.6,322.2,397.5,316.5,396.8z" fill="#7CB342"/>
    
    <!-- Inner details of the plant -->
    <path d="M316.5,396.8c-10.9-3.8-22.3-6.2-33.9-7.2c-11.6-1-23.3-0.6-34.8,1.2c-5.8,0.9-11.5,2.1-17.1,3.7
      c-5.6,1.6-11.1,3.5-16.4,5.8c-10.7,4.5-20.8,10.4-30,17.5c-4.6,3.5-9,7.3-13.1,11.3c-4.1,4-8,8.3-11.6,12.7
      c-7.2,8.9-13.3,18.6-18.1,28.9c-2.4,5.2-4.5,10.5-6.2,16c-1.7,5.5-3.1,11-4,16.7c-1.9,11.3-2.1,22.9-0.6,34.3
      c0.7,5.7,1.9,11.4,3.4,16.9c1.5,5.5,3.4,11,5.7,16.2c4.5,10.5,10.4,20.4,17.5,29.3c3.6,4.5,7.4,8.7,11.5,12.7
      c4.1,4,8.4,7.7,13,11.1c9.1,6.9,19.1,12.6,29.7,16.9c5.3,2.1,10.7,3.9,16.3,5.3c5.5,1.4,11.2,2.5,16.9,3.2
      c11.4,1.4,23,1.2,34.3-0.7c5.7-0.9,11.3-2.2,16.8-3.8c5.5-1.6,10.9-3.6,16.1-5.9c10.4-4.6,20.3-10.6,29.1-17.8
      c4.4-3.6,8.6-7.5,12.5-11.6c3.9-4.1,7.6-8.5,10.9-13.1c6.7-9.2,12.3-19.3,16.4-30c2-5.3,3.7-10.8,5-16.4c1.3-5.6,2.3-11.2,2.9-17
      c1.2-11.5,0.8-23.1-1.2-34.5c-1-5.7-2.3-11.3-4-16.8c-1.7-5.5-3.7-10.8-6-16c-4.7-10.4-10.7-20.1-17.9-28.8
      c-3.6-4.3-7.5-8.5-11.6-12.3c-4.1-3.9-8.5-7.5-13-10.9c-9.1-6.7-19-12.3-29.5-16.6c-5.3-2.1-10.7-3.9-16.2-5.4
      C327.8,398.6,322.2,397.5,316.5,396.8z" fill="#8BC34A" opacity="0.7"/>
    
    <!-- Inner spiral of the plant -->
    <path d="M260,450c0,0,20-40,60-30s40,60,10,80s-70,0-70-40S260,450,260,450z" fill="#7CB342" opacity="0.5"/>
    
    <!-- Orangutan body -->
    <path d="M520,350c-30-20-70-10-90,20s0,70,30,90s70,10,90-20S550,370,520,350z" fill="#1B5E20"/>
    
    <!-- Orangutan head and face -->
    <ellipse cx="450" cy="350" rx="60" ry="70" fill="#1B5E20"/>
    <ellipse cx="440" cy="340" rx="40" ry="50" fill="#1B5E20"/>
    <path d="M420,320c0,0,10,20,40,20s40-20,40-20" stroke="white" stroke-width="2" fill="none"/>
    <circle cx="430" cy="310" r="5" fill="white"/>
    <circle cx="470" cy="310" r="5" fill="white"/>
    <ellipse cx="450" cy="330" rx="10" ry="5" fill="white"/>
    
    <!-- Orangutan limbs -->
    <path d="M520,350c0,0,40,20,50,60s-10,60-40,50s-30-40-20-60S520,350,520,350z" fill="#1B5E20"/>
    <path d="M380,400c0,0-30,30-20,70s40,40,60,20s10-50-10-70S380,400,380,400z" fill="#1B5E20"/>
    <path d="M450,420c0,0-20,40-10,70s40,30,60,10s10-50-10-70S450,420,450,420z" fill="#1B5E20"/>
    
    <!-- Yellow/orange mane -->
    <path d="M390,300c0,0-10-30,10-50s40-10,50,10s0,40-20,50S390,300,390,300z" fill="#FFC107"/>
    <path d="M390,300c0,0-10-30,10-50s40-10,50,10s0,40-20,50S390,300,390,300z" fill="#FF9800" opacity="0.7"/>
    
    <!-- Fire element -->
    <path d="M550,300c0,0,20-40,40-30s10,40-10,50s-40,10-40-10S550,300,550,300z" fill="#FF5722"/>
    <path d="M550,300c0,0,20-40,40-30s10,40-10,50s-40,10-40-10S550,300,550,300z" fill="#FF9800" opacity="0.7"/>
    
    <!-- Bird/toucan element -->
    <path d="M600,320c0,0,30-20,50-10s20,30,0,40s-40,0-50-10S600,320,600,320z" fill="#1B5E20"/>
    <path d="M650,330c0,0,20-5,30,5s0,20-20,15S650,330,650,330z" fill="#1B5E20"/>
    
    <!-- Leaf element -->
    <ellipse cx="600" cy="450" rx="30" ry="15" fill="#7CB342" transform="rotate(30 600 450)"/>
  </g>
  
  <!-- JumBah text -->
  <g transform="translate(0, 150)">
    <text x="300" y="500" font-family="Arial, sans-serif" font-size="100" font-weight="bold" fill="#1B5E20">Jum</text>
    <text x="500" y="500" font-family="Arial, sans-serif" font-size="100" font-weight="bold" fill="#FFA000">Bah</text>
  </g>
</svg>